# xmcd CD database file
#
# Track frame offsets:
#	150
#	14354
#	41744
#	61922
#	79501
#	119506
#	135975
#	152373
#	167193
#	186254
#	198878
#	216165
#	246117
#	266482
#	290158
#	304322
#	319441
#
# Disc length: 4785 seconds
#
# Revision: 0
# Processed by: cddbd v1.5.1PL0 Copyright (c) Steve Scherf et al.
# Submitted via: CDex 1.51
#
DISCID=f512af11
DTITLE=Delbart McClinton - Live
DYEAR=1900
DGENRE=Blues
TTITLE0=Old Weakness
TTITLE1=Leap of faith
TTITLE2=I'm with you
TTITLE3=I want to love you
TTITLE4=Smooth Talk
TTITLE5=Maybe someday baby
TTITLE6=Don't want to love you
TTITLE7=New York City
TTITLE8=Sqeeze me in
TTITLE9=Dreams to remember
TTITLE10=Why me?
TTITLE11=Rebecca Rebecca
TTITLE12=Back to Louisiana
TTITLE13=When Rita Leaves
TTITLE14=Livin' it Down
TTITLE15=Giving it up for your love
TTITLE16=B-Movie Boxcar Blues
EXTD=
EXTT0=
EXTT1=
EXTT2=
EXTT3=
EXTT4=
EXTT5=
EXTT6=
EXTT7=
EXTT8=
EXTT9=
EXTT10=
EXTT11=
EXTT12=
EXTT13=
EXTT14=
EXTT15=
EXTT16=
PLAYORDER=
